# xmcd
#
# Track frame offsets:
#	150
#	34418
#	64031
#	89373
#	112095
#	160094
#	191044
#	236766
#	262951
#	295033
#
# Disc length: 4239 seconds
#
# Revision: 0
# Processed by: cddbd v1.5.2PL0 Copyright (c) Steve Scherf et al.
# Submitted via: EasyCDDAExtractor 12.1.0.1
#
DISCID=8c108d0a
DTITLE=Vineyard Music - Winds of Worship 10
DYEAR=1900
DGENRE=chorus
TTITLE0=You Are God
TTITLE1=Come And Fill Me Up
TTITLE2=You Are The Vine
TTITLE3=Abba Father
TTITLE4=Blessed Assurance
TTITLE5=Alleluia, He Is Coming
TTITLE6=Your Presence
TTITLE7=I See The Lord
TTITLE8=Whatever Is True
TTITLE9=Amazing Grace
EXTD=
EXTT0=
EXTT1=
EXTT2=
EXTT3=
EXTT4=
EXTT5=
EXTT6=
EXTT7=
EXTT8=
EXTT9=
PLAYORDER=
